<?xml version="1.0" encoding="UTF-8"?>
<!DOCTYPE svg
PUBLIC "-//W3C//DTD SVG 1.1//EN"
       "http://www.w3.org/Graphics/SVG/1.1/DTD/svg11.dtd">
<svg viewBox="-15 42 700 590" width="715px" height="548px" xmlns="http://www.w3.org/2000/svg" version="1.1">
   <line x1="56" y1="513" x2="66" y2="513" style="stroke:#bbb;stroke-width:1;"/>
   <line x1="457" y1="87" x2="467" y2="87" style="stroke:#bbb;stroke-width:1;"/>
   <line x1="66" y1="513" x2="457" y2="87" style="stroke:#bbb;stroke-width:1;"/>
   <line x1="63.5" y1="513" x2="59.964466094067" y2="516.53553390593" style="stroke:#bbb;stroke-width:2;"/>
   <line x1="63.5" y1="513" x2="59.964466094067" y2="509.46446609407" style="stroke:#bbb;stroke-width:2;"/>
   <line x1="462" y1="87" x2="458.46446609407" y2="90.535533905933" style="stroke:#bbb;stroke-width:2;"/>
   <line x1="462" y1="87" x2="458.46446609407" y2="83.464466094067" style="stroke:#bbb;stroke-width:2;"/>
   <line x1="652" y1="505" x2="662" y2="505" style="stroke:#bbb;stroke-width:1;"/>
   <line x1="695" y1="316" x2="685" y2="316" style="stroke:#bbb;stroke-width:1;"/>
   <line x1="662" y1="505" x2="695" y2="316" style="stroke:#bbb;stroke-width:1;"/>
   <line x1="659.5" y1="505" x2="655.96446609407" y2="508.53553390593" style="stroke:#bbb;stroke-width:2;"/>
   <line x1="659.5" y1="505" x2="655.96446609407" y2="501.46446609407" style="stroke:#bbb;stroke-width:2;"/>
   <line x1="690" y1="316" x2="693.53553390593" y2="319.53553390593" style="stroke:#bbb;stroke-width:2;"/>
   <line x1="690" y1="316" x2="693.53553390593" y2="312.46446609407" style="stroke:#bbb;stroke-width:2;"/>
   <line x1="558" y1="565" x2="548" y2="565" style="stroke:#0bf;stroke-width:1;"/>
   <line x1="66" y1="473" x2="56" y2="473" style="stroke:#0bf;stroke-width:1;"/>
   <line x1="548" y1="565" x2="66" y2="473" style="stroke:#0bf;stroke-width:1;"/>
   <line x1="550.5" y1="565" x2="554.03553390593" y2="568.53553390593" style="stroke:#0bf;stroke-width:2;"/>
   <line x1="550.5" y1="565" x2="554.03553390593" y2="561.46446609407" style="stroke:#0bf;stroke-width:2;"/>
   <line x1="61" y1="473" x2="64.535533905933" y2="476.53553390593" style="stroke:#0bf;stroke-width:2;"/>
   <line x1="61" y1="473" x2="64.535533905933" y2="469.46446609407" style="stroke:#0bf;stroke-width:2;"/>
   <line x1="220" y1="264" x2="230" y2="264" style="stroke:#0b0;stroke-width:1;"/>
   <line x1="591" y1="316" x2="601" y2="316" style="stroke:#0b0;stroke-width:1;"/>
   <line x1="230" y1="264" x2="591" y2="316" style="stroke:#0b0;stroke-width:1;"/>
   <line x1="227.5" y1="264" x2="223.96446609407" y2="267.53553390593" style="stroke:#0b0;stroke-width:2;"/>
   <line x1="227.5" y1="264" x2="223.96446609407" y2="260.46446609407" style="stroke:#0b0;stroke-width:2;"/>
   <line x1="596" y1="316" x2="592.46446609407" y2="319.53553390593" style="stroke:#0b0;stroke-width:2;"/>
   <line x1="596" y1="316" x2="592.46446609407" y2="312.46446609407" style="stroke:#0b0;stroke-width:2;"/>
   <rect width="56" height="20" x="0" y="443" style="fill:#007;stroke:black;"/>
   <text width="56" height="20" x="5" y="457" style="fill:#fff;" font-family="Arial" font-size="16px"> Menu</text>
   <rect width="56" height="20" x="0" y="463" style="fill:#aea;stroke:black;"/>
   <text width="56" height="20" x="5" y="477" style="fill:black;" font-family="Arial" font-size="16px">id</text>
   <rect width="56" height="20" x="0" y="483" style="fill:none;stroke:black;"/>
   <text width="56" height="20" x="5" y="497" style="fill:black;" font-family="Arial" font-size="16px">NAME</text>
   <rect width="56" height="20" x="0" y="503" style="fill:none;stroke:black;"/>
   <text width="56" height="20" x="5" y="517" style="fill:black;" font-family="Arial" font-size="16px">id_plat</text>
   <rect width="88" height="20" x="467" y="57" style="fill:#007;stroke:black;"/>
   <text width="88" height="20" x="472" y="71" style="fill:#fff;" font-family="Arial" font-size="16px"> plats</text>
   <rect width="88" height="20" x="467" y="77" style="fill:#aea;stroke:black;"/>
   <text width="88" height="20" x="472" y="91" style="fill:black;" font-family="Arial" font-size="16px">id</text>
   <rect width="88" height="20" x="467" y="97" style="fill:none;stroke:black;"/>
   <text width="88" height="20" x="472" y="111" style="fill:black;" font-family="Arial" font-size="16px">Name</text>
   <rect width="88" height="20" x="467" y="117" style="fill:none;stroke:black;"/>
   <text width="88" height="20" x="472" y="131" style="fill:black;" font-family="Arial" font-size="16px">description</text>
   <rect width="88" height="20" x="467" y="137" style="fill:none;stroke:black;"/>
   <text width="88" height="20" x="472" y="151" style="fill:black;" font-family="Arial" font-size="16px">Plats_img</text>
   <rect width="94" height="20" x="558" y="455" style="fill:#007;stroke:black;"/>
   <text width="94" height="20" x="563" y="469" style="fill:#fff;" font-family="Arial" font-size="16px"> Reservation</text>
   <rect width="94" height="20" x="558" y="475" style="fill:none;stroke:black;"/>
   <text width="94" height="20" x="563" y="489" style="fill:black;" font-family="Arial" font-size="16px">id</text>
   <rect width="94" height="20" x="558" y="495" style="fill:none;stroke:black;"/>
   <text width="94" height="20" x="563" y="509" style="fill:black;" font-family="Arial" font-size="16px">Cin</text>
   <rect width="94" height="20" x="558" y="515" style="fill:none;stroke:black;"/>
   <text width="94" height="20" x="563" y="529" style="fill:black;" font-family="Arial" font-size="16px">First_Date</text>
   <rect width="94" height="20" x="558" y="535" style="fill:none;stroke:black;"/>
   <text width="94" height="20" x="563" y="549" style="fill:black;" font-family="Arial" font-size="16px">Last_Date</text>
   <rect width="94" height="20" x="558" y="555" style="fill:none;stroke:black;"/>
   <text width="94" height="20" x="563" y="569" style="fill:black;" font-family="Arial" font-size="16px">id_menu</text>
   <rect width="65" height="20" x="155" y="214" style="fill:#007;stroke:black;"/>
   <text width="65" height="20" x="160" y="228" style="fill:#fff;" font-family="Arial" font-size="16px"> ROLES</text>
   <rect width="65" height="20" x="155" y="234" style="fill:none;stroke:black;"/>
   <text width="65" height="20" x="160" y="248" style="fill:black;" font-family="Arial" font-size="16px">id</text>
   <rect width="65" height="20" x="155" y="254" style="fill:none;stroke:black;"/>
   <text width="65" height="20" x="160" y="268" style="fill:black;" font-family="Arial" font-size="16px">cin</text>
   <rect width="65" height="20" x="155" y="274" style="fill:none;stroke:black;"/>
   <text width="65" height="20" x="160" y="288" style="fill:black;" font-family="Arial" font-size="16px">TYPE</text>
   <rect width="84" height="20" x="601" y="206" style="fill:#007;stroke:black;"/>
   <text width="84" height="20" x="606" y="220" style="fill:#fff;" font-family="Arial" font-size="16px"> Users</text>
   <rect width="84" height="20" x="601" y="226" style="fill:none;stroke:black;"/>
   <text width="84" height="20" x="606" y="240" style="fill:black;" font-family="Arial" font-size="16px">id</text>
   <rect width="84" height="20" x="601" y="246" style="fill:none;stroke:black;"/>
   <text width="84" height="20" x="606" y="260" style="fill:black;" font-family="Arial" font-size="16px">FristName</text>
   <rect width="84" height="20" x="601" y="266" style="fill:none;stroke:black;"/>
   <text width="84" height="20" x="606" y="280" style="fill:black;" font-family="Arial" font-size="16px">LastName</text>
   <rect width="84" height="20" x="601" y="286" style="fill:none;stroke:black;"/>
   <text width="84" height="20" x="606" y="300" style="fill:black;" font-family="Arial" font-size="16px">Password</text>
   <rect width="84" height="20" x="601" y="306" style="fill:none;stroke:black;"/>
   <text width="84" height="20" x="606" y="320" style="fill:black;" font-family="Arial" font-size="16px">cin</text>
   <rect width="84" height="20" x="601" y="326" style="fill:none;stroke:black;"/>
   <text width="84" height="20" x="606" y="340" style="fill:black;" font-family="Arial" font-size="16px">Email</text>
   <rect width="84" height="20" x="601" y="346" style="fill:none;stroke:black;"/>
   <text width="84" height="20" x="606" y="360" style="fill:black;" font-family="Arial" font-size="16px">FirstDate</text>
</svg>
